<svg width="234" height="48" viewBox="0 0 234 48" fill="none" xmlns="http://www.w3.org/2000/svg">
<path fill-rule="evenodd" clip-rule="evenodd" d="M45.5 4H37.5V5.66667C37.5 7.32352 36.1569 8.66667 34.5 8.66667C32.8431 8.66667 31.5 7.32352 31.5 5.66667V4H25.5C22.8333 4 21.5 5.33333 21.5 8V40C21.5 42.6667 22.8333 44 25.5 44H53.5H57.5C60.1667 44 61.5 42.6667 61.5 40V36V8C61.5 5.33333 60.1667 4 57.5 4H51.5V5.66667C51.5 7.32352 50.1569 8.66667 48.5 8.66667C46.8431 8.66667 45.5 7.32352 45.5 5.66667V4Z" fill="#F9B022"/>
<path d="M44.1333 19.3334L48.1999 14H34.2666L52.6666 37.2667C52.9999 37.7334 52.8999 38.3334 52.7333 38.6667C52.5666 39 52.0666 39.3334 51.5333 39.3334H31.5333C30.9999 39.3334 30.5333 39.0667 30.2999 38.6667C30.0666 38.2667 30.1333 37.7334 30.3333 37.4L36.5999 28.9334C36.9999 28.5334 37.8999 28.3334 38.4666 28.8C39.0333 29.2667 39.0666 30.2 38.7333 30.6L34.1999 36.6667H48.7999L30.3999 13.4C30.0666 12.9334 30.1666 12.3334 30.3333 12C30.4999 11.6667 30.8666 11.3334 31.3999 11.3334H50.9999C51.5333 11.3334 51.8992 11.6667 52.0666 12C52.234 12.3334 52.3333 13 51.9999 13.4L46.1999 21.0667C45.7333 21.5334 44.7999 21.5334 44.3333 21.0667C43.8666 20.6 43.7815 19.8667 44.1333 19.3334Z" fill="black"/>
<path d="M71.74 29C71.6973 29 71.676 28.9733 71.676 28.92V19.8H69.596C69.5427 19.8 69.516 19.7733 69.516 19.72L69.532 17.928C69.532 17.8853 69.5533 17.864 69.596 17.864H75.676C75.7293 17.864 75.756 17.8853 75.756 17.928V19.72C75.756 19.7733 75.7347 19.8 75.692 19.8H73.596L73.612 28.92C73.612 28.9733 73.5907 29 73.548 29H71.74ZM77.4103 29C77.3676 29 77.3463 28.9733 77.3463 28.92L77.3623 17.928C77.3623 17.8853 77.3889 17.864 77.4423 17.864H79.2183C79.2716 17.864 79.2983 17.8853 79.2983 17.928L79.2823 22.28H81.6823V17.928C81.6823 17.8853 81.7036 17.864 81.7463 17.864H83.5223C83.5756 17.864 83.6023 17.8853 83.6023 17.928L83.6343 28.92C83.6343 28.9733 83.6076 29 83.5543 29H81.7623C81.7089 29 81.6823 28.9733 81.6823 28.92V24.216H79.2823V28.92C79.2823 28.9733 79.2609 29 79.2183 29H77.4103ZM85.804 29C85.7613 29 85.74 28.9733 85.74 28.92L85.756 17.928C85.756 17.8853 85.7773 17.864 85.82 17.864H90.956C90.9987 17.864 91.02 17.8907 91.02 17.944V19.736C91.02 19.7787 90.9987 19.8 90.956 19.8H87.676V22.296H90.956C90.9987 22.296 91.02 22.3173 91.02 22.36L91.036 24.168C91.036 24.2107 91.0147 24.232 90.972 24.232H87.676V27.032H90.972C91.0147 27.032 91.036 27.0587 91.036 27.112V28.936C91.036 28.9787 91.0147 29 90.972 29H85.804ZM96.4978 29C96.4551 29 96.4338 28.9733 96.4338 28.92L96.4658 17.928C96.4658 17.8853 96.4871 17.864 96.5298 17.864H98.4818C98.5244 17.864 98.5618 17.8853 98.5938 17.928L100.05 20.04L101.506 17.928C101.538 17.8853 101.575 17.864 101.618 17.864H103.586C103.628 17.864 103.65 17.8853 103.65 17.928L103.682 28.92C103.682 28.9733 103.66 29 103.618 29H101.81C101.767 29 101.746 28.9733 101.746 28.92L101.73 20.76L100.05 23.192L98.3858 20.76L98.3698 28.92C98.3698 28.9733 98.3484 29 98.3058 29H96.4978ZM108.788 29.16C108.212 29.16 107.684 29.016 107.204 28.728C106.734 28.4293 106.356 28.04 106.068 27.56C105.78 27.0693 105.636 26.5307 105.636 25.944L105.652 20.872C105.652 20.2853 105.79 19.752 106.068 19.272C106.356 18.792 106.74 18.408 107.22 18.12C107.7 17.832 108.222 17.688 108.788 17.688C109.364 17.688 109.886 17.832 110.356 18.12C110.825 18.408 111.198 18.792 111.476 19.272C111.764 19.752 111.908 20.2853 111.908 20.872L111.924 25.944C111.924 26.5307 111.78 27.0693 111.492 27.56C111.214 28.04 110.836 28.4293 110.356 28.728C109.886 29.016 109.364 29.16 108.788 29.16ZM108.788 27.224C109.108 27.224 109.385 27.096 109.62 26.84C109.865 26.5733 109.988 26.2747 109.988 25.944L109.972 20.872C109.972 20.52 109.86 20.2213 109.636 19.976C109.412 19.7307 109.129 19.608 108.788 19.608C108.457 19.608 108.174 19.7307 107.94 19.976C107.705 20.2107 107.588 20.5093 107.588 20.872V25.944C107.588 26.296 107.705 26.6 107.94 26.856C108.174 27.1013 108.457 27.224 108.788 27.224ZM114.004 29C113.961 29 113.94 28.9733 113.94 28.92L113.972 17.928C113.972 17.8853 113.993 17.864 114.036 17.864H117.268C117.844 17.864 118.372 18.008 118.852 18.296C119.343 18.5733 119.732 18.952 120.02 19.432C120.308 19.9013 120.452 20.4347 120.452 21.032C120.452 21.4267 120.393 21.784 120.276 22.104C120.159 22.4133 120.02 22.68 119.86 22.904C119.7 23.1173 119.556 23.2773 119.428 23.384C120.004 24.024 120.292 24.776 120.292 25.64L120.308 28.92C120.308 28.9733 120.281 29 120.228 29H118.42C118.377 29 118.356 28.984 118.356 28.952V25.64C118.356 25.256 118.217 24.9253 117.94 24.648C117.673 24.36 117.343 24.216 116.948 24.216H115.892L115.876 28.92C115.876 28.9733 115.855 29 115.812 29H114.004ZM115.892 22.296H117.268C117.599 22.296 117.892 22.1733 118.148 21.928C118.404 21.6827 118.532 21.384 118.532 21.032C118.532 20.6907 118.404 20.3973 118.148 20.152C117.903 19.9067 117.609 19.784 117.268 19.784H115.892V22.296ZM122.523 29C122.48 29 122.459 28.9733 122.459 28.92L122.475 17.928C122.475 17.8853 122.496 17.864 122.539 17.864H127.675C127.717 17.864 127.739 17.8907 127.739 17.944V19.736C127.739 19.7787 127.717 19.8 127.675 19.8H124.395V22.296H127.675C127.717 22.296 127.739 22.3173 127.739 22.36L127.755 24.168C127.755 24.2107 127.733 24.232 127.691 24.232H124.395V27.032H127.691C127.733 27.032 127.755 27.0587 127.755 27.112V28.936C127.755 28.9787 127.733 29 127.691 29H122.523ZM134.753 29C134.71 29 134.689 28.9733 134.689 28.92V19.8H132.609C132.555 19.8 132.529 19.7733 132.529 19.72L132.545 17.928C132.545 17.8853 132.566 17.864 132.609 17.864H138.689C138.742 17.864 138.769 17.8853 138.769 17.928V19.72C138.769 19.7733 138.747 19.8 138.705 19.8H136.609L136.625 28.92C136.625 28.9733 136.603 29 136.561 29H134.753ZM140.423 29C140.38 29 140.359 28.9733 140.359 28.92L140.375 17.928C140.375 17.8853 140.401 17.864 140.455 17.864H142.231C142.284 17.864 142.311 17.8853 142.311 17.928L142.295 22.28H144.695V17.928C144.695 17.8853 144.716 17.864 144.759 17.864H146.535C146.588 17.864 146.615 17.8853 146.615 17.928L146.647 28.92C146.647 28.9733 146.62 29 146.567 29H144.775C144.721 29 144.695 28.9733 144.695 28.92V24.216H142.295V28.92C142.295 28.9733 142.273 29 142.231 29H140.423ZM148.817 29C148.774 29 148.753 28.9733 148.753 28.92L148.769 17.928C148.769 17.8853 148.79 17.864 148.833 17.864H153.969C154.011 17.864 154.033 17.8907 154.033 17.944V19.736C154.033 19.7787 154.011 19.8 153.969 19.8H150.689V22.296H153.969C154.011 22.296 154.033 22.3173 154.033 22.36L154.049 24.168C154.049 24.2107 154.027 24.232 153.985 24.232H150.689V27.032H153.985C154.027 27.032 154.049 27.0587 154.049 27.112V28.936C154.049 28.9787 154.027 29 153.985 29H148.817ZM159.51 29C159.468 29 159.446 28.9733 159.446 28.92L159.478 17.928C159.478 17.8853 159.5 17.864 159.542 17.864H161.494C161.537 17.864 161.574 17.8853 161.606 17.928L163.062 20.04L164.518 17.928C164.55 17.8853 164.588 17.864 164.63 17.864H166.598C166.641 17.864 166.662 17.8853 166.662 17.928L166.694 28.92C166.694 28.9733 166.673 29 166.63 29H164.822C164.78 29 164.758 28.9733 164.758 28.92L164.742 20.76L163.062 23.192L161.398 20.76L161.382 28.92C161.382 28.9733 161.361 29 161.318 29H159.51ZM168.904 29C168.861 29 168.84 28.9733 168.84 28.92L168.856 17.928C168.856 17.8853 168.877 17.864 168.92 17.864H174.056C174.099 17.864 174.12 17.8907 174.12 17.944V19.736C174.12 19.7787 174.099 19.8 174.056 19.8H170.776V22.296H174.056C174.099 22.296 174.12 22.3173 174.12 22.36L174.136 24.168C174.136 24.2107 174.115 24.232 174.072 24.232H170.776V27.032H174.072C174.115 27.032 174.136 27.0587 174.136 27.112V28.936C174.136 28.9787 174.115 29 174.072 29H168.904ZM176.423 29C176.38 29 176.359 28.9733 176.359 28.92L176.391 17.928C176.391 17.8853 176.412 17.864 176.455 17.864H179.687C180.263 17.864 180.791 18.008 181.271 18.296C181.761 18.5733 182.151 18.952 182.439 19.432C182.727 19.9013 182.871 20.4347 182.871 21.032C182.871 21.4267 182.812 21.784 182.695 22.104C182.577 22.4133 182.439 22.68 182.279 22.904C182.119 23.1173 181.975 23.2773 181.847 23.384C182.423 24.024 182.711 24.776 182.711 25.64L182.727 28.92C182.727 28.9733 182.7 29 182.647 29H180.839C180.796 29 180.775 28.984 180.775 28.952V25.64C180.775 25.256 180.636 24.9253 180.359 24.648C180.092 24.36 179.761 24.216 179.367 24.216H178.311L178.295 28.92C178.295 28.9733 178.273 29 178.231 29H176.423ZM178.311 22.296H179.687C180.017 22.296 180.311 22.1733 180.567 21.928C180.823 21.6827 180.951 21.384 180.951 21.032C180.951 20.6907 180.823 20.3973 180.567 20.152C180.321 19.9067 180.028 19.784 179.687 19.784H178.311V22.296ZM184.942 29C184.899 29 184.878 28.9733 184.878 28.92L184.91 17.928C184.91 17.8853 184.931 17.864 184.974 17.864H188.206C188.782 17.864 189.31 18.008 189.79 18.296C190.28 18.5733 190.67 18.952 190.958 19.432C191.246 19.9013 191.39 20.4347 191.39 21.032C191.39 21.4267 191.331 21.784 191.214 22.104C191.096 22.4133 190.958 22.68 190.798 22.904C190.638 23.1173 190.494 23.2773 190.366 23.384C190.942 24.024 191.23 24.776 191.23 25.64L191.246 28.92C191.246 28.9733 191.219 29 191.166 29H189.358C189.315 29 189.294 28.984 189.294 28.952V25.64C189.294 25.256 189.155 24.9253 188.878 24.648C188.611 24.36 188.28 24.216 187.886 24.216H186.83L186.814 28.92C186.814 28.9733 186.792 29 186.75 29H184.942ZM186.83 22.296H188.206C188.536 22.296 188.83 22.1733 189.086 21.928C189.342 21.6827 189.47 21.384 189.47 21.032C189.47 20.6907 189.342 20.3973 189.086 20.152C188.84 19.9067 188.547 19.784 188.206 19.784H186.83V22.296ZM193.476 29C193.423 29 193.396 28.9733 193.396 28.92L193.412 17.928C193.412 17.8853 193.434 17.864 193.476 17.864H195.268C195.311 17.864 195.332 17.8853 195.332 17.928L195.348 28.92C195.348 28.9733 195.327 29 195.284 29H193.476ZM197.62 29C197.577 29 197.556 28.9733 197.556 28.92L197.572 17.928C197.572 17.8853 197.593 17.864 197.636 17.864H202.772C202.814 17.864 202.836 17.8907 202.836 17.944V19.736C202.836 19.7787 202.814 19.8 202.772 19.8H199.492V22.296H202.772C202.814 22.296 202.836 22.3173 202.836 22.36L202.852 24.168C202.852 24.2107 202.83 24.232 202.788 24.232H199.492V27.032H202.788C202.83 27.032 202.852 27.0587 202.852 27.112V28.936C202.852 28.9787 202.83 29 202.788 29H197.62ZM205.138 29C205.096 29 205.074 28.9733 205.074 28.92L205.106 17.928C205.106 17.8853 205.128 17.864 205.17 17.864H208.402C208.978 17.864 209.506 18.008 209.986 18.296C210.477 18.5733 210.866 18.952 211.154 19.432C211.442 19.9013 211.586 20.4347 211.586 21.032C211.586 21.4267 211.528 21.784 211.41 22.104C211.293 22.4133 211.154 22.68 210.994 22.904C210.834 23.1173 210.69 23.2773 210.562 23.384C211.138 24.024 211.426 24.776 211.426 25.64L211.442 28.92C211.442 28.9733 211.416 29 211.362 29H209.554C209.512 29 209.49 28.984 209.49 28.952V25.64C209.49 25.256 209.352 24.9253 209.074 24.648C208.808 24.36 208.477 24.216 208.082 24.216H207.026L207.01 28.92C207.01 28.9733 206.989 29 206.946 29H205.138ZM207.026 22.296H208.402C208.733 22.296 209.026 22.1733 209.282 21.928C209.538 21.6827 209.666 21.384 209.666 21.032C209.666 20.6907 209.538 20.3973 209.282 20.152C209.037 19.9067 208.744 19.784 208.402 19.784H207.026V22.296Z" fill="black"/>
</svg>
