<svg width="5" height="5" viewBox="0 0 5 5" fill="none" xmlns="http://www.w3.org/2000/svg">
<path fill-rule="evenodd" clip-rule="evenodd" d="M1.51674 1.29576C1.45572 1.23475 1.35678 1.23475 1.29576 1.29576C1.23475 1.35678 1.23475 1.45572 1.29576 1.51674L2.27903 2.5L1.29576 3.48326C1.23475 3.54428 1.23475 3.64322 1.29576 3.70424C1.35678 3.76525 1.45572 3.76525 1.51674 3.70424L2.5 2.72097L3.48326 3.70424C3.54428 3.76525 3.64322 3.76525 3.70424 3.70424C3.76525 3.64322 3.76525 3.54428 3.70424 3.48326L2.72097 2.5L3.70424 1.51674C3.76525 1.45572 3.76525 1.35678 3.70424 1.29576C3.64322 1.23475 3.54428 1.23475 3.48326 1.29576L2.5 2.27903L1.51674 1.29576Z" fill="#373737"/>
</svg>
